<svg width="512" height="512" viewBox="0 0 512 512" xmlns="http://www.w3.org/2000/svg">
  <defs>
    <linearGradient id="bg" x1="0" y1="0" x2="1" y2="1">
      <stop offset="0" stop-color="#0ea5e9"/>
      <stop offset="1" stop-color="#2563eb"/>
    </linearGradient>
    <linearGradient id="sheen" x1="0" y1="0" x2="0" y2="1">
      <stop offset="0" stop-color="#ffffff" stop-opacity="0.25"/>
      <stop offset="0.5" stop-color="#ffffff" stop-opacity="0"/>
    </linearGradient>
  </defs>

  <!-- Squircle background -->
  <rect x="16" y="16" width="480" height="480" rx="116" fill="url(#bg)"/>
  <rect x="16" y="16" width="480" height="480" rx="116" fill="url(#sheen)"/>

  <!-- Water / laundry waves -->
  <g fill="none" stroke="#ffffff" stroke-linecap="round" stroke-width="30">
    <path d="M104 300c34-52 86-52 120 0s86 52 120 0 60-34 64-34" opacity="0.55"/>
    <path d="M104 364c34-52 86-52 120 0s86 52 120 0 60-34 64-34" opacity="0.9"/>
  </g>

  <!-- Bubble -->
  <circle cx="356" cy="168" r="52" fill="#ffffff"/>
  <circle cx="356" cy="168" r="52" fill="none" stroke="#0ea5e9" stroke-width="0" />
  <circle cx="338" cy="150" r="16" fill="#bae6fd"/>
</svg>
